<mxfile host="Electron" modified="2024-01-13T01:14:22.692Z" agent="Mozilla/5.0 (Windows NT 10.0; Win64; x64) AppleWebKit/537.36 (KHTML, like Gecko) draw.io/21.5.0 Chrome/112.0.5615.204 Electron/24.5.1 Safari/537.36" etag="9yTosPcf2NLlikEnRShu" version="21.5.0" type="device">
  <diagram name="PÃ¡gina-1" id="7nRBaWp-rM1cSkKOwmQ_">
    <mxGraphModel dx="1434" dy="836" grid="1" gridSize="10" guides="1" tooltips="1" connect="1" arrows="1" fold="1" page="1" pageScale="1" pageWidth="827" pageHeight="1169" math="0" shadow="0">
      <root>
        <mxCell id="0" />
        <mxCell id="1" parent="0" />
        <mxCell id="BZSXN-hKJpuUP782abSJ-3" value="" style="edgeStyle=orthogonalEdgeStyle;rounded=0;orthogonalLoop=1;jettySize=auto;html=1;" edge="1" parent="1" source="BZSXN-hKJpuUP782abSJ-1" target="BZSXN-hKJpuUP782abSJ-2">
          <mxGeometry relative="1" as="geometry" />
        </mxCell>
        <mxCell id="BZSXN-hKJpuUP782abSJ-1" value="UPDATE" style="ellipse;whiteSpace=wrap;html=1;" vertex="1" parent="1">
          <mxGeometry x="320" y="70" width="120" height="80" as="geometry" />
        </mxCell>
        <mxCell id="BZSXN-hKJpuUP782abSJ-6" style="edgeStyle=orthogonalEdgeStyle;rounded=0;orthogonalLoop=1;jettySize=auto;html=1;entryX=0.5;entryY=0;entryDx=0;entryDy=0;entryPerimeter=0;" edge="1" parent="1" source="BZSXN-hKJpuUP782abSJ-2" target="BZSXN-hKJpuUP782abSJ-5">
          <mxGeometry relative="1" as="geometry" />
        </mxCell>
        <mxCell id="BZSXN-hKJpuUP782abSJ-7" style="edgeStyle=orthogonalEdgeStyle;rounded=0;orthogonalLoop=1;jettySize=auto;html=1;entryX=0.5;entryY=0;entryDx=0;entryDy=0;entryPerimeter=0;" edge="1" parent="1" source="BZSXN-hKJpuUP782abSJ-2" target="BZSXN-hKJpuUP782abSJ-4">
          <mxGeometry relative="1" as="geometry" />
        </mxCell>
        <mxCell id="BZSXN-hKJpuUP782abSJ-2" value="DB" style="shape=cylinder3;whiteSpace=wrap;html=1;boundedLbl=1;backgroundOutline=1;size=15;" vertex="1" parent="1">
          <mxGeometry x="350" y="190" width="60" height="80" as="geometry" />
        </mxCell>
        <mxCell id="BZSXN-hKJpuUP782abSJ-8" style="edgeStyle=orthogonalEdgeStyle;rounded=0;orthogonalLoop=1;jettySize=auto;html=1;entryX=0;entryY=0.5;entryDx=0;entryDy=0;entryPerimeter=0;shape=link;" edge="1" parent="1" source="BZSXN-hKJpuUP782abSJ-4" target="BZSXN-hKJpuUP782abSJ-5">
          <mxGeometry relative="1" as="geometry" />
        </mxCell>
        <mxCell id="BZSXN-hKJpuUP782abSJ-9" value="SAME" style="edgeLabel;html=1;align=center;verticalAlign=middle;resizable=0;points=[];" vertex="1" connectable="0" parent="BZSXN-hKJpuUP782abSJ-8">
          <mxGeometry x="0.3" y="-1" relative="1" as="geometry">
            <mxPoint x="-21" y="-1" as="offset" />
          </mxGeometry>
        </mxCell>
        <mxCell id="BZSXN-hKJpuUP782abSJ-4" value="DB1" style="shape=cylinder3;whiteSpace=wrap;html=1;boundedLbl=1;backgroundOutline=1;size=15;" vertex="1" parent="1">
          <mxGeometry x="250" y="280" width="60" height="80" as="geometry" />
        </mxCell>
        <mxCell id="BZSXN-hKJpuUP782abSJ-11" value="" style="edgeStyle=orthogonalEdgeStyle;rounded=0;orthogonalLoop=1;jettySize=auto;html=1;" edge="1" parent="1" source="BZSXN-hKJpuUP782abSJ-5" target="BZSXN-hKJpuUP782abSJ-10">
          <mxGeometry relative="1" as="geometry" />
        </mxCell>
        <mxCell id="BZSXN-hKJpuUP782abSJ-20" style="edgeStyle=orthogonalEdgeStyle;rounded=0;orthogonalLoop=1;jettySize=auto;html=1;entryX=1;entryY=0.5;entryDx=0;entryDy=0;" edge="1" parent="1" source="BZSXN-hKJpuUP782abSJ-5" target="BZSXN-hKJpuUP782abSJ-17">
          <mxGeometry relative="1" as="geometry">
            <Array as="points">
              <mxPoint x="580" y="320" />
              <mxPoint x="580" y="740" />
            </Array>
          </mxGeometry>
        </mxCell>
        <mxCell id="BZSXN-hKJpuUP782abSJ-5" value="DB2" style="shape=cylinder3;whiteSpace=wrap;html=1;boundedLbl=1;backgroundOutline=1;size=15;" vertex="1" parent="1">
          <mxGeometry x="450" y="280" width="60" height="80" as="geometry" />
        </mxCell>
        <mxCell id="BZSXN-hKJpuUP782abSJ-13" value="" style="edgeStyle=orthogonalEdgeStyle;rounded=0;orthogonalLoop=1;jettySize=auto;html=1;" edge="1" parent="1" source="BZSXN-hKJpuUP782abSJ-10" target="BZSXN-hKJpuUP782abSJ-12">
          <mxGeometry relative="1" as="geometry" />
        </mxCell>
        <mxCell id="BZSXN-hKJpuUP782abSJ-10" value="UPDATE" style="ellipse;whiteSpace=wrap;html=1;" vertex="1" parent="1">
          <mxGeometry x="420" y="410" width="120" height="80" as="geometry" />
        </mxCell>
        <mxCell id="BZSXN-hKJpuUP782abSJ-15" value="" style="edgeStyle=orthogonalEdgeStyle;rounded=0;orthogonalLoop=1;jettySize=auto;html=1;fillColor=#a20025;strokeColor=#6F0000;" edge="1" parent="1" source="BZSXN-hKJpuUP782abSJ-12" target="BZSXN-hKJpuUP782abSJ-14">
          <mxGeometry relative="1" as="geometry" />
        </mxCell>
        <mxCell id="BZSXN-hKJpuUP782abSJ-18" value="" style="edgeStyle=orthogonalEdgeStyle;rounded=0;orthogonalLoop=1;jettySize=auto;html=1;fillColor=#008a00;strokeColor=#005700;" edge="1" parent="1" source="BZSXN-hKJpuUP782abSJ-12" target="BZSXN-hKJpuUP782abSJ-17">
          <mxGeometry relative="1" as="geometry" />
        </mxCell>
        <mxCell id="BZSXN-hKJpuUP782abSJ-12" value="STATUS" style="rhombus;whiteSpace=wrap;html=1;" vertex="1" parent="1">
          <mxGeometry x="440" y="545" width="80" height="80" as="geometry" />
        </mxCell>
        <mxCell id="BZSXN-hKJpuUP782abSJ-16" style="edgeStyle=orthogonalEdgeStyle;rounded=0;orthogonalLoop=1;jettySize=auto;html=1;entryX=0.5;entryY=1;entryDx=0;entryDy=0;entryPerimeter=0;" edge="1" parent="1" source="BZSXN-hKJpuUP782abSJ-14" target="BZSXN-hKJpuUP782abSJ-4">
          <mxGeometry relative="1" as="geometry" />
        </mxCell>
        <mxCell id="BZSXN-hKJpuUP782abSJ-14" value="RESTORE&lt;br&gt;DB" style="ellipse;whiteSpace=wrap;html=1;" vertex="1" parent="1">
          <mxGeometry x="220" y="545" width="120" height="80" as="geometry" />
        </mxCell>
        <mxCell id="BZSXN-hKJpuUP782abSJ-17" value="UPDATE&amp;nbsp;&lt;br&gt;TO NEW&amp;nbsp;&lt;br&gt;DB" style="ellipse;whiteSpace=wrap;html=1;" vertex="1" parent="1">
          <mxGeometry x="420" y="700" width="120" height="80" as="geometry" />
        </mxCell>
      </root>
    </mxGraphModel>
  </diagram>
</mxfile>
